<svg width="36" height="31" viewBox="0 0 36 31" fill="none" xmlns="http://www.w3.org/2000/svg">
<path fill-rule="evenodd" clip-rule="evenodd" d="M9.92106 7.83423C9.26035 7.89209 8.64514 8.19811 8.1969 8.69187C7.74867 9.18563 7.5 9.83124 7.5 10.5012C7.5 11.1711 7.74867 11.8167 8.1969 12.3105C8.64514 12.8043 9.26035 13.1103 9.92106 13.1682C10.5818 13.1103 11.197 12.8043 11.6452 12.3105C12.0934 11.8167 12.3421 11.1711 12.3421 10.5012C12.3421 9.83124 12.0934 9.18563 11.6452 8.69187C11.197 8.19811 10.5818 7.89209 9.92106 7.83423ZM24.2105 12.4082C20.8068 13.1182 18.25 16.1355 18.25 19.75C18.25 20.2352 18.2961 20.7095 18.3841 21.169H7.98891L7.99055 17.9687L10.3814 15.3351C10.4454 15.2614 10.5242 15.2024 10.6125 15.1619C10.7009 15.1215 10.7967 15.1006 10.8937 15.1006C10.9907 15.1006 11.0866 15.1215 11.175 15.1619C11.2633 15.2024 11.3421 15.2614 11.4061 15.3351L13.7821 17.9687L21.0074 10.0011C21.0714 9.92747 21.1502 9.86844 21.2385 9.828C21.3269 9.78756 21.4227 9.76665 21.5197 9.76665C21.6167 9.76665 21.7126 9.78756 21.801 9.828C21.8893 9.86844 21.9681 9.92747 22.0321 10.0011L24.2105 12.4082Z" fill="black"/>
<path fill-rule="evenodd" clip-rule="evenodd" d="M25.75 25.5833C28.9717 25.5833 31.5833 22.9717 31.5833 19.75C31.5833 16.5283 28.9717 13.9167 25.75 13.9167C22.5283 13.9167 19.9167 16.5283 19.9167 19.75C19.9167 22.9717 22.5283 25.5833 25.75 25.5833ZM25.75 27.25C29.8921 27.25 33.25 23.8921 33.25 19.75C33.25 15.6079 29.8921 12.25 25.75 12.25C21.6079 12.25 18.25 15.6079 18.25 19.75C18.25 23.8921 21.6079 27.25 25.75 27.25Z" fill="black"/>
<path fill-rule="evenodd" clip-rule="evenodd" d="M29.6188 24.3329C30.1014 23.8502 30.8839 23.8502 31.3665 24.3329L34.6621 27.6284C35.1448 28.1111 35.1448 28.8936 34.6621 29.3762C34.1795 29.8588 33.397 29.8588 32.9144 29.3762L29.6188 26.0806C29.1362 25.598 29.1362 24.8155 29.6188 24.3329Z" fill="black"/>
<path fill-rule="evenodd" clip-rule="evenodd" d="M6.25 0C2.79822 0 0 2.79822 0 6.25V24.25C0 27.7018 2.79822 30.5 6.25 30.5H16.6C16.5344 30.1769 16.5 29.8425 16.5 29.5V28H6.25C4.17893 28 2.5 26.3211 2.5 24.25V6.25C2.5 4.17893 4.17893 2.5 6.25 2.5H28.25C30.3211 2.5 32 4.17893 32 6.25V12.5H34.5V6.25C34.5 2.79822 31.7018 0 28.25 0H6.25Z" fill="black"/>
</svg>
