<svg width="32" height="33" viewBox="0 0 32 33" fill="none" xmlns="http://www.w3.org/2000/svg">
<path d="M18.4477 28.6609C17.8095 29.8341 16.8065 30.579 15.7124 30.579C14.6183 30.579 13.6153 29.8341 12.9771 28.6609H18.4295M21.5295 26.2399H9.91357C10.1324 30.0203 12.6306 33 15.7124 33C18.7942 33 21.2924 30.0203 21.5112 26.2399H21.5295Z" fill="black"/>
<path d="M31.0117 6.5C31.0117 10.0899 28.1016 13 24.5117 13C20.9219 13 18.0117 10.0899 18.0117 6.5C18.0117 2.91015 20.9219 0 24.5117 0C28.1016 0 31.0117 2.91015 31.0117 6.5Z" fill="black"/>
<path fill-rule="evenodd" clip-rule="evenodd" d="M17.4839 0.107751C16.994 0.0367081 16.4938 0 15.9859 0H15.4936H15.0012C9.40298 0 4.71651 4.48815 4.44298 10.2613L3.49475 19.2562C3.31239 20.7088 2.52828 22.0124 1.32475 22.8132C0.303571 23.5581 -0.188782 24.8431 0.0665122 26.0909C0.412983 27.5807 1.72592 28.6236 3.22122 28.6236H3.29416H21.0371H27.7295H27.8024C29.2977 28.6236 30.6289 27.5807 30.9571 26.0909C31.2306 24.8431 30.6106 23.614 29.6989 22.8132C28.6047 21.8821 27.7295 20.7088 27.5289 19.2748L27.1383 15.6322C26.3842 15.8487 25.5916 15.9744 24.7732 15.9965L25.1583 19.61C25.4136 21.4723 26.4165 23.1857 28.1489 24.6755C28.4771 24.9549 28.6777 25.3459 28.623 25.5694C28.5318 25.9419 28.1853 26.2212 27.7112 26.2212H10.2965H3.22122C2.82004 26.2212 2.47357 25.9419 2.38239 25.6067C2.32769 25.3087 2.4371 24.9921 2.63769 24.8431C4.38828 23.6326 5.55534 21.7331 5.8471 19.5356L6.79534 10.5406V10.4661V10.3916C7.01416 5.92212 10.6247 2.42099 15.0012 2.42099H15.3842H15.4936H15.603H15.9295C16.3333 1.57308 16.8589 0.794441 17.4839 0.107751Z" fill="black"/>
</svg>
