<svg width="43" height="29" viewBox="0 0 43 29" fill="none" xmlns="http://www.w3.org/2000/svg">
<path fill-rule="evenodd" clip-rule="evenodd" d="M22.0793 2.56896C21.3804 2.43034 20.656 2.50171 19.9979 2.77392C19.3398 3.0461 18.7779 3.50673 18.3829 4.09717C17.9879 4.68755 17.7775 5.38129 17.7778 6.09063C17.7782 6.78099 17.2189 7.34093 16.5285 7.34131C15.8381 7.34168 15.2782 6.78233 15.2778 6.09198C15.2772 4.88687 15.6348 3.70885 16.3051 2.70699C16.9753 1.70519 17.928 0.924661 19.0423 0.463741C20.1566 0.00284106 21.3827 -0.117886 22.5657 0.116733C23.7486 0.351359 24.8355 0.930896 25.6889 1.7824C26.5423 2.63392 27.1237 3.71921 27.3592 4.90115C27.5946 6.08309 27.4734 7.30809 27.011 8.42112C26.5487 9.53411 25.766 10.4849 24.7625 11.1533C24.1103 11.5878 23.3838 11.8904 22.624 12.0488V12.6338L41.37 23.3315L41.3867 23.3412C41.9226 23.6581 42.3367 24.1461 42.5616 24.7271C42.7866 25.3082 42.809 25.9479 42.6255 26.5432C42.442 27.1386 42.0632 27.6544 41.5508 28.0082C41.0505 28.3535 40.4512 28.5249 39.845 28.4971H2.9034C2.29725 28.5249 1.6979 28.3535 1.19765 28.0082C0.685241 27.6544 0.306472 27.1386 0.122923 26.5432C-0.06066 25.9477 -0.0380256 25.308 0.186903 24.7271C0.41184 24.1461 0.825886 23.6581 1.36183 23.3412L1.37854 23.3315L20.124 12.6341V11.0574C20.124 11.0342 20.1247 11.0111 20.1259 10.9882C20.1249 10.9678 20.1244 10.9473 20.1245 10.9267C20.1248 10.2364 20.6848 9.67702 21.3751 9.67739C22.0878 9.67778 22.7843 9.46723 23.3765 9.0727C23.9688 8.6782 24.43 8.11755 24.7023 7.46201C24.9746 6.80651 25.0459 6.08534 24.9073 5.38957C24.7687 4.69379 24.4263 4.05428 23.9231 3.55208C23.4197 3.04986 22.7781 2.70758 22.0793 2.56896ZM2.62941 25.4961C2.5784 25.5277 2.53953 25.5748 2.51824 25.6298C2.49627 25.6865 2.49411 25.7488 2.51197 25.8067C2.52986 25.8647 2.56696 25.9156 2.61796 25.9508C2.66895 25.986 2.73076 26.0033 2.79338 25.9995C2.81906 25.9979 2.84479 25.9971 2.87052 25.9971H39.8779L39.8989 25.9973C39.9176 25.9976 39.9364 25.9983 39.9551 25.9995C40.0177 26.0033 40.0795 25.986 40.1305 25.9508C40.1815 25.9156 40.2186 25.8647 40.2365 25.8067C40.2544 25.7486 40.2522 25.6863 40.2303 25.6298C40.209 25.5748 40.1701 25.5277 40.1191 25.4961L21.3743 14.7991L2.62941 25.4961Z" fill="black"/>
</svg>
